<svg width="89" height="40" viewBox="0 0 89 40" fill="none" xmlns="http://www.w3.org/2000/svg">
            <path
              d="M19.8187 22.9801C18.1755 22.9801 16.8382 21.6433 16.8382 19.9996C16.8382 18.3558 18.1749 17.019 19.8187 17.019C21.4624 17.019 22.7992 18.3558 22.7992 19.9996C22.7992 21.6433 21.4624 22.9801 19.8187 22.9801ZM19.8187 18.5011C18.9923 18.5011 18.3196 19.1738 18.3196 20.0002C18.3196 20.8266 18.9923 21.4992 19.8187 21.4992C20.6451 21.4992 21.3177 20.8266 21.3177 20.0002C21.3177 19.1738 20.6451 18.5011 19.8187 18.5011Z"
              fill="#FAF9FD" />
            <path
              d="M19.8186 25.7012C16.6752 25.7012 14.1179 23.1439 14.1179 20.0005C14.1179 16.8571 16.6752 14.2998 19.8186 14.2998C22.962 14.2998 25.5193 16.8571 25.5193 20.0005C25.5193 23.1439 22.962 25.7012 19.8186 25.7012ZM19.8186 15.7813C17.4919 15.7813 15.5993 17.6739 15.5993 20.0005C15.5993 22.3272 17.4919 24.2198 19.8186 24.2198C22.1452 24.2198 24.0378 22.3272 24.0378 20.0005C24.0378 17.6739 22.1452 15.7813 19.8186 15.7813Z"
              fill="#FAF9FD" />
            <path
              d="M19.8186 28.6585C15.0442 28.6585 11.1598 24.7741 11.1598 19.9997C11.1598 15.2253 15.0442 11.3408 19.8186 11.3408C24.593 11.3408 28.4775 15.2253 28.4775 19.9997C28.4775 24.7741 24.593 28.6585 19.8186 28.6585ZM19.8186 12.8229C15.8609 12.8229 12.6419 16.0426 12.6419 19.9997C12.6419 23.9567 15.8615 27.1764 19.8186 27.1764C23.7757 27.1764 26.9954 23.9567 26.9954 19.9997C26.9954 16.0426 23.7757 12.8229 19.8186 12.8229Z"
              fill="#FAF9FD" />
            <path
              d="M19.8187 31.6898C13.3727 31.6898 8.12904 26.4456 8.12904 20.0002C8.12904 13.5548 13.3733 8.31055 19.8187 8.31055C26.2641 8.31055 31.5083 13.5548 31.5083 20.0002C31.5083 26.4456 26.2641 31.6898 19.8187 31.6898ZM19.8187 9.79203C14.19 9.79203 9.61053 14.3715 9.61053 20.0002C9.61053 25.6288 14.19 30.2083 19.8187 30.2083C25.4473 30.2083 30.0268 25.6288 30.0268 20.0002C30.0268 14.3715 25.4473 9.79203 19.8187 9.79203Z"
              fill="#FAF9FD" />
            <path
              d="M19.8186 34.7456C11.6877 34.7456 5.07279 28.1306 5.07279 19.9997C5.07279 11.8688 11.6877 5.25391 19.8186 5.25391C27.9495 5.25391 34.5644 11.8688 34.5644 19.9997C34.5644 28.1306 27.9495 34.7456 19.8186 34.7456ZM19.8186 6.73599C12.505 6.73599 6.55428 12.6862 6.55428 20.0003C6.55428 27.3145 12.5044 33.2647 19.8186 33.2647C27.1328 33.2647 33.083 27.3145 33.083 20.0003C33.083 12.6862 27.1328 6.73599 19.8186 6.73599Z"
              fill="#FAF9FD" />
            <path d="M23.8612 38.5186H16.7499V40H23.8612V38.5186Z" fill="#FAF9FD" />
            <path d="M22.8918 36.1567H17.7203V37.6382H22.8918V36.1567Z" fill="#FAF9FD" />
            <path d="M23.8611 0H16.7498V1.48148H23.8611V0Z" fill="#FAF9FD" />
            <path d="M22.8918 2.36182H17.7203V3.8433H22.8918V2.36182Z" fill="#FAF9FD" />
            <path d="M39.6377 16.3892H38.1562V23.5005H39.6377V16.3892Z" fill="#FAF9FD" />
            <path d="M37.2759 17.3594H35.7944V22.531H37.2759V17.3594Z" fill="#FAF9FD" />
            <path d="M1.48148 16.3892H0V23.5005H1.48148V16.3892Z" fill="#FAF9FD" />
            <path d="M3.84258 17.3594H2.3611V22.531H3.84258V17.3594Z" fill="#FAF9FD" />
            <path d="M58.5491 4.26226H55.0661V13.3273H53.9097V4.26226H50.3982V3.2627H58.5497V4.26226H58.5491Z"
              fill="#FAF9FD" />
            <path
              d="M65.6865 8.98745V13.3272H64.5301V9.14425C64.5301 7.65974 63.9447 7.08882 62.7314 7.08882C61.2324 7.08882 60.1759 8.27364 60.1759 10.1868V13.3272H59.0056V2.83447H60.1759V7.45995L59.99 8.27365H60.3182C60.6039 6.98893 61.503 6.08926 63.045 6.08926C64.587 6.08926 65.6859 7.01738 65.6859 8.98745H65.6865Z"
              fill="#FAF9FD" />
            <path
              d="M69.655 6.08984C71.6535 6.08984 72.9667 7.36064 72.9667 9.54442V10.0015H67.3562C67.4277 11.3431 68.07 12.4995 69.8258 12.4995C70.9961 12.4995 71.7813 11.9286 72.0386 10.8437H73.2089C72.9377 11.9431 72.081 13.4706 69.8258 13.4706C67.2848 13.4706 66.2138 11.7288 66.2138 9.6873C66.2138 7.40302 67.6414 6.08984 69.6544 6.08984H69.655ZM71.8249 9.11638C71.8249 7.97454 71.0681 7.07488 69.655 7.07488C68.242 7.07488 67.3568 7.97394 67.3568 9.11638H71.8249Z"
              fill="#FAF9FD" />
            <path
              d="M50.8257 15.2627H54.1665C56.5646 15.2627 58.0921 15.8197 58.0921 18.0749C58.0921 19.5879 57.3068 20.2593 56.2219 20.4446V20.7872H57.4213C57.9922 20.7872 58.2204 21.0155 58.2204 21.544V25.3273H57.0501V21.2873H51.9966V25.3273H50.8263V15.2633L50.8257 15.2627ZM54.1665 20.2878C55.8799 20.2878 56.9218 20.1164 56.9218 18.2747C56.9218 16.433 55.8799 16.2617 54.1665 16.2617H51.9966V20.2871H54.1665V20.2878Z"
              fill="#FAF9FD" />
            <path
              d="M62.4886 18.0894C64.7438 18.0894 66.2144 19.7167 66.2144 21.7722C66.2144 23.8276 64.7438 25.4695 62.4886 25.4695C60.2333 25.4695 58.7343 23.8421 58.7343 21.7722C58.7343 19.7022 60.2188 18.0894 62.4886 18.0894ZM62.4886 24.4706C64.1589 24.4706 65.058 23.2573 65.058 21.7722C65.058 20.2871 64.1589 19.0883 62.4886 19.0883C60.8182 19.0883 59.9046 20.3016 59.9046 21.7722C59.9046 23.2428 60.8037 24.4706 62.4886 24.4706Z"
              fill="#FAF9FD" />
            <path
              d="M72.1538 21.3868V18.2319H73.3101V25.327H72.1538V24.0991L72.3396 23.2854H72.0115C71.7257 24.5702 70.8267 25.4698 69.2846 25.4698C67.7426 25.4698 66.6292 24.5417 66.6292 22.5716V18.2319H67.7995V22.4148C67.7995 23.8994 68.3704 24.4703 69.5982 24.4703C71.0973 24.4703 72.1538 23.2855 72.1538 21.3868Z"
              fill="#FAF9FD" />
            <path
              d="M75.294 22.1863V25.3273H74.1237V18.2322H75.294V19.46L75.1081 20.2737H75.4363C75.722 18.989 76.6211 18.0894 78.1631 18.0894C79.7052 18.0894 80.804 19.0175 80.804 20.9875V25.3273H79.6476V21.1444C79.6476 19.6598 79.0622 19.0889 77.8489 19.0889C76.3499 19.0889 75.2934 20.2737 75.2934 22.1869L75.294 22.1863Z"
              fill="#FAF9FD" />
            <path
              d="M87.7284 25.3269V24.285L87.9282 23.4858H87.5855C87.2859 24.5853 86.3293 25.4704 84.7164 25.4704C82.661 25.4704 81.3333 23.886 81.3333 21.7731C81.3333 19.6601 82.661 18.0902 84.7164 18.0902C86.3299 18.0902 87.2859 18.9754 87.5855 20.0888H87.9282L87.7284 19.2751V14.8354H88.8987V25.3281H87.7284V25.3269ZM85.0591 19.0886C83.5885 19.0886 82.5036 19.8878 82.5036 21.7725C82.5036 23.6572 83.5885 24.4708 85.0591 24.4708C86.5297 24.4708 87.7284 23.6711 87.7284 21.7725C87.7284 19.8738 86.5291 19.0886 85.0591 19.0886Z"
              fill="#FAF9FD" />
            <path d="M58.5491 28.2621H55.0661V37.3272H53.9097V28.2621H50.3982V27.2632H58.5497V28.2621H58.5491Z"
              fill="#FAF9FD" />
            <path
              d="M58.9056 33.2872L61.7323 33.016C61.6609 31.7167 60.9616 31.0744 59.7338 31.0744C58.7058 31.0744 57.7492 31.5309 57.7492 32.8731H56.6074C56.6074 31.4025 57.7208 30.0894 59.7338 30.0894C61.7469 30.0894 62.9032 31.4025 62.9032 33.3012V36.3277H63.9452V37.3273H62.6889C62.1465 37.3273 61.8468 37.0276 61.8468 36.499V36.1134L62.0326 35.3711H61.69C61.4187 36.456 60.6619 37.4695 58.9492 37.4695C56.8938 37.4695 56.5795 36.0988 56.5795 35.3566C56.5795 34.2287 57.2504 33.458 58.9062 33.2866L58.9056 33.2872ZM59.0915 36.4706C60.7043 36.4706 61.7323 35.3572 61.7323 33.8866L59.1054 34.1578C58.2063 34.2438 57.7492 34.515 57.7492 35.2143C57.7492 36.028 58.2632 36.4706 59.0915 36.4706Z"
              fill="#FAF9FD" />
            <path
              d="M64.2164 26.8342H65.3867V31.2738L65.2008 32.0875H65.529C65.8287 30.9741 66.7852 30.089 68.4126 30.089C70.4687 30.089 71.7818 31.6734 71.7818 33.7718C71.7818 35.8702 70.4687 37.4692 68.4126 37.4692C66.7852 37.4692 65.8287 36.584 65.529 35.4846H65.2008L65.3867 36.2837V37.3257H64.2164V26.833V26.8342ZM68.0566 36.4702C69.5272 36.4702 70.6122 35.6705 70.6122 33.7718C70.6122 31.8732 69.5272 31.088 68.0566 31.088C66.5861 31.088 65.3873 31.8871 65.3873 33.7718C65.3873 35.6565 66.6006 36.4702 68.0566 36.4702Z"
              fill="#FAF9FD" />
            <path
              d="M71.4108 36.3274H73.4093V27.7049L71.9387 27.8332V26.8337L73.5945 26.6908C74.2514 26.6339 74.565 27.005 74.565 27.6758V36.3268H76.5496V37.3263H71.4101V36.3268L71.4108 36.3274Z"
              fill="#FAF9FD" />
            <path
              d="M79.7336 30.089C81.7321 30.089 83.0453 31.3598 83.0453 33.5436V34.0001H77.4348C77.5062 35.3423 78.1486 36.4981 79.9043 36.4981C81.0746 36.4981 81.8598 35.9271 82.1172 34.8422H83.2874C83.0162 35.9417 82.1595 37.4692 79.9043 37.4692C77.3633 37.4692 76.2923 35.7273 76.2923 33.6858C76.2923 31.4016 77.7199 30.0884 79.733 30.0884L79.7336 30.089ZM81.9034 33.1155C81.9034 31.9737 81.1467 31.074 79.7336 31.074C78.3205 31.074 77.4354 31.9731 77.4354 33.1155H81.9034Z"
              fill="#FAF9FD" />
          </svg>